<svg width="49" height="48" viewBox="0 0 49 48" fill="none" xmlns="http://www.w3.org/2000/svg">
<rect x="0.5" width="48" height="48" rx="8" fill="#263238"/>
<g clip-path="url(#clip0_611_204)">
<path fill-rule="evenodd" clip-rule="evenodd" d="M24 8C24.3978 8 24.7794 8.15804 25.0607 8.43934C25.342 8.72064 25.5 9.10218 25.5 9.5V14H32.768C33.596 14 34.396 14.294 35.028 14.828L39.168 18.328C39.5563 18.6566 39.8684 19.0658 40.0825 19.5273C40.2965 19.9887 40.4074 20.4913 40.4074 21C40.4074 21.5087 40.2965 22.0113 40.0825 22.4727C39.8684 22.9342 39.5563 23.3434 39.168 23.672L35.028 27.172C34.3962 27.7065 33.5955 27.9999 32.768 28H25.5V38.5C25.5 38.8978 25.342 39.2794 25.0607 39.5607C24.7794 39.842 24.3978 40 24 40C23.6022 40 23.2206 39.842 22.9393 39.5607C22.658 39.2794 22.5 38.8978 22.5 38.5V28H14C13.0717 28 12.1815 27.6313 11.5251 26.9749C10.8687 26.3185 10.5 25.4283 10.5 24.5V17.5C10.5 15.568 12.068 14 14 14H22.5V9.5C22.5 9.10218 22.658 8.72064 22.9393 8.43934C23.2206 8.15804 23.6022 8 24 8V8ZM24 25H32.768C32.8861 24.9993 33.0002 24.9568 33.09 24.88L37.23 21.38C37.2849 21.3331 37.329 21.2748 37.3592 21.2092C37.3894 21.1436 37.405 21.0722 37.405 21C37.405 20.9278 37.3894 20.8564 37.3592 20.7908C37.329 20.7252 37.2849 20.6669 37.23 20.62L33.09 17.12C33.0002 17.0432 32.8861 17.0007 32.768 17H14C13.8674 17 13.7402 17.0527 13.6464 17.1464C13.5527 17.2402 13.5 17.3674 13.5 17.5V24.5C13.5 24.776 13.724 25 14 25H24Z" fill="white"/>
</g>
<defs>
<clipPath id="clip0_611_204">
<rect width="32" height="32" fill="white" transform="translate(8.5 8)"/>
</clipPath>
</defs>
</svg>
