<svg width="24" height="24" viewBox="0 0 24 24" fill="none" xmlns="http://www.w3.org/2000/svg">
<path d="M11.5539 1.75007C11.7389 1.38442 12.2611 1.38442 12.4461 1.75007L15.5904 7.96339C15.6641 8.10907 15.8043 8.20958 15.9659 8.23262L22.9771 9.23223C23.391 9.29123 23.554 9.8018 23.2509 10.0897L18.1945 14.8936C18.073 15.0091 18.0174 15.1777 18.0465 15.3427L19.2418 22.1411C19.3134 22.5479 18.8887 22.8611 18.5212 22.6725L12.2282 19.4444C12.0849 19.371 11.9151 19.371 11.7718 19.4444L5.47881 22.6725C5.11128 22.8611 4.68663 22.5479 4.75816 22.1411L5.95353 15.3427C5.98255 15.1777 5.92696 15.0091 5.80547 14.8936L0.749056 10.0897C0.44601 9.8018 0.609046 9.29123 1.02287 9.23223L8.03408 8.23262C8.19571 8.20958 8.33592 8.10907 8.40964 7.96339L11.5539 1.75007Z" fill="#E68F3F"/>
</svg>
