<svg width="48" height="48" viewBox="0 0 48 48" fill="none" xmlns="http://www.w3.org/2000/svg">
<rect width="48" height="48" rx="8" fill="#263238"/>
<path d="M37 22C37.2652 22 37.5196 21.8946 37.7071 21.7071C37.8946 21.5196 38 21.2652 38 21V16C38 15.4696 37.7893 14.9609 37.4142 14.5858C37.0391 14.2107 36.5304 14 36 14H12C11.4696 14 10.9609 14.2107 10.5858 14.5858C10.2107 14.9609 10 15.4696 10 16V21C10 21.2652 10.1054 21.5196 10.2929 21.7071C10.4804 21.8946 10.7348 22 11 22C11.5304 22 12.0391 22.2107 12.4142 22.5858C12.7893 22.9609 13 23.4696 13 24C13 24.5304 12.7893 25.0391 12.4142 25.4142C12.0391 25.7893 11.5304 26 11 26C10.7348 26 10.4804 26.1054 10.2929 26.2929C10.1054 26.4804 10 26.7348 10 27V32C10 32.5304 10.2107 33.0391 10.5858 33.4142C10.9609 33.7893 11.4696 34 12 34H36C36.5304 34 37.0391 33.7893 37.4142 33.4142C37.7893 33.0391 38 32.5304 38 32V27C38 26.7348 37.8946 26.4804 37.7071 26.2929C37.5196 26.1054 37.2652 26 37 26C36.4696 26 35.9609 25.7893 35.5858 25.4142C35.2107 25.0391 35 24.5304 35 24C35 23.4696 35.2107 22.9609 35.5858 22.5858C35.9609 22.2107 36.4696 22 37 22ZM36 27.87V32H29V29H27V32H12V27.87C12.856 27.6463 13.6137 27.1451 14.1544 26.4448C14.6952 25.7445 14.9885 24.8848 14.9885 24C14.9885 23.1152 14.6952 22.2555 14.1544 21.5552C13.6137 20.8549 12.856 20.3537 12 20.13V16H27V19H29V16H36V20.13C35.144 20.3537 34.3863 20.8549 33.8456 21.5552C33.3048 22.2555 33.0115 23.1152 33.0115 24C33.0115 24.8848 33.3048 25.7445 33.8456 26.4448C34.3863 27.1451 35.144 27.6463 36 27.87Z" fill="white"/>
<path d="M27 21H29V27H27V21Z" fill="white"/>
</svg>
