<svg width="48" height="48" viewBox="0 0 48 48" fill="none" xmlns="http://www.w3.org/2000/svg">
<rect width="48" height="48" rx="8" fill="#263238"/>
<path d="M34.86 19.0267L36.944 16.9427L35.0587 15.0573L32.7814 17.3333C31.3814 16.4933 29.7494 16 28 16C22.8547 16 18.6667 20.1867 18.6667 25.3333C18.6667 30.48 22.8547 34.6667 28 34.6667C33.1454 34.6667 37.3334 30.48 37.3334 25.3333C37.3323 22.9947 36.449 20.7425 34.86 19.0267ZM28 32C24.324 32 21.3334 29.0093 21.3334 25.3333C21.3334 21.6573 24.324 18.6667 28 18.6667C31.676 18.6667 34.6667 21.6573 34.6667 25.3333C34.6667 29.0093 31.676 32 28 32Z" fill="white"/>
<path d="M26.6667 21.3333H29.3334V26.6667H26.6667V21.3333ZM25.3334 12H30.6667V14.6667H25.3334V12ZM12 18.6667H17.3334V21.3333H12V18.6667ZM12 29.3333H17.3334V32H12V29.3333ZM10.6667 24H15.9867V26.6667H10.6667V24Z" fill="white"/>
</svg>
